<svg xmlns="http://www.w3.org/2000/svg" xmlns:xlink="http://www.w3.org/1999/xlink" viewBox="0,0,256,256" width="48px" height="48px" fill-rule="nonzero"><g fill="none" fill-rule="nonzero" stroke="none" stroke-width="1" stroke-linecap="butt" stroke-linejoin="miter" stroke-miterlimit="10" stroke-dasharray="" stroke-dashoffset="0" font-family="none" font-weight="none" font-size="none" text-anchor="none" style="mix-blend-mode: normal"><g transform="scale(5.33333,5.33333)"><path d="M7.898,12.269c1.27,-1.673 2.587,-3.367 4.339,-4.526c1.264,-0.837 2.703,-1.361 4.128,-1.878c3.263,-1.184 6.713,-2.386 10.131,-1.783c1.381,0.244 2.693,0.776 3.993,1.304c1.363,0.554 2.732,1.111 3.997,1.862c1.694,1.005 3.167,2.336 4.627,3.658c1.857,1.68 3.799,3.496 4.461,5.911c0.225,0.821 0.29,1.676 0.35,2.525c0.295,4.139 0.472,8.502 -1.379,12.215c-1.261,2.53 -3.364,5.533 -5.53,7.35c-1.483,1.243 -3.024,2.432 -4.721,3.362c-5.109,2.802 -11.597,2.005 -16.805,-0.609c-1.11,-0.557 -2.156,-1.23 -3.194,-1.911c-1.047,-0.687 -2.091,-1.386 -3.023,-2.223c-2.614,-2.347 -4.225,-5.674 -4.926,-9.116c-1.656,-8.127 2.143,-14.284 3.552,-16.141z" fill="#fe705a"></path><path d="M44.44,19.56c-0.079,-1.126 -0.153,-2.272 -0.531,-3.345c-0.67,-1.901 -2.046,-3.425 -3.489,-4.786c-1.63,-1.537 -3.31,-3.097 -5.199,-4.314c-1.966,-1.265 -4.256,-2.157 -6.455,-2.931c-2.278,-0.802 -4.578,-0.925 -6.947,-0.481c-2.387,0.448 -4.719,1.312 -6.974,2.197c-2.098,0.823 -3.87,1.958 -5.382,3.638c-0.71,0.789 -1.355,1.634 -1.997,2.479c-4.023,5.333 -5.094,12.797 -2.903,19.073c0.675,1.933 1.651,3.755 2.96,5.334c1.419,1.712 3.255,2.943 5.106,4.139c3.687,2.38 7.897,3.946 12.328,3.966c2.074,0.009 4.164,-0.335 6.089,-1.119c2.04,-0.831 3.845,-2.132 5.548,-3.51c1.676,-1.355 3.095,-2.906 4.333,-4.67c1.216,-1.733 2.321,-3.614 2.929,-5.653c0.636,-2.134 0.784,-4.39 0.749,-6.606c-0.018,-1.138 -0.086,-2.275 -0.165,-3.411zM43.434,26.694c-0.514,4.084 -2.79,7.864 -5.627,10.787c-1.434,1.477 -3.147,2.773 -4.897,3.851c-1.707,1.051 -3.559,1.749 -5.546,2.039c-3.983,0.581 -8.171,-0.381 -11.725,-2.195c-1.948,-0.994 -3.911,-2.243 -5.594,-3.642c-1.517,-1.26 -2.719,-2.834 -3.614,-4.587c-3.128,-6.131 -2.456,-13.769 1.247,-19.492c0.206,-0.319 0.423,-0.631 0.651,-0.934c1.255,-1.652 2.572,-3.35 4.35,-4.47c1.865,-1.175 4.099,-1.851 6.182,-2.53c2.157,-0.703 4.415,-1.255 6.7,-1.06c2.287,0.195 4.53,1.241 6.602,2.167c2.05,0.916 3.814,2.164 5.493,3.644c1.467,1.293 3.029,2.598 4.185,4.189c0.573,0.788 1.034,1.654 1.277,2.601c0.281,1.095 0.308,2.251 0.377,3.374c0.132,2.08 0.2,4.185 -0.061,6.258z" fill="#fe705a"></path><path d="M28.757,15.154c0.113,0.795 -0.331,2.207 -0.707,3.02c-0.376,0.813 -0.678,1.862 -0.08,2.53c0.43,0.481 1.183,0.541 1.797,0.344c1.202,-0.387 1.986,-1.542 2.489,-2.699c0.606,-1.393 0.943,-2.973 0.536,-4.436c-0.72,-2.587 -3.581,-4.065 -6.264,-4.185c-3.757,-0.168 -7.436,1.774 -9.826,4.678c-2.39,2.904 -3.574,6.671 -3.812,10.424c-0.137,2.156 0.029,4.363 0.803,6.38c0.774,2.017 2.201,3.834 4.137,4.794c1.129,0.56 2.382,0.812 3.621,1.043c1.277,0.237 2.612,0.454 3.859,0.092c0.628,-0.182 1.206,-0.504 1.758,-0.854c2.556,-1.618 4.719,-3.932 5.882,-6.725c0.165,-0.395 0.306,-0.859 0.105,-1.236c-0.269,-0.505 -0.996,-0.441 -1.347,0.012c-0.357,0.461 -0.752,0.813 -1.033,1.312c-1.376,2.44 -3.904,4.357 -6.705,4.344c-2.515,-0.011 -4.645,-1.826 -5.538,-4.176c-0.893,-2.35 -0.464,-4.94 -0.133,-7.433c0.375,-2.826 0.625,-6.459 3.351,-8.216c1.118,-0.721 3.96,-1.664 5.221,-1.242c0.843,0.282 1.624,0.426 1.886,2.229z" fill="#ffffff"></path><path d="M32.615,27.488c-0.975,-0.136 -1.644,0.865 -2.142,1.555c-0.637,0.883 -1.135,1.774 -1.948,2.527c-0.772,0.715 -1.691,1.298 -2.696,1.622c-2.034,0.656 -4.119,0.141 -5.592,-1.412c-1.712,-1.806 -1.97,-4.281 -1.77,-6.657c0.173,-2.056 0.413,-4.2 0.87,-6.216c0.407,-1.792 1.192,-3.576 2.878,-4.494c1.371,-0.746 3.352,-1.445 4.885,-0.887c0.788,0.287 1.018,0.881 1.155,1.66c0.088,0.992 -0.326,2.008 -0.713,2.9c-0.354,0.817 -0.638,1.829 -0.157,2.657c0.471,0.811 1.476,1.041 2.342,0.833c0.95,-0.228 1.704,-0.919 2.253,-1.697c1.212,-1.716 1.89,-4.219 1.242,-6.265c-0.557,-1.759 -2.031,-3.025 -3.693,-3.719c-3.964,-1.654 -8.566,-0.122 -11.665,2.59c-3.409,2.983 -5.085,7.5 -5.447,11.926c-0.358,4.379 0.684,9.505 4.821,11.845c1.023,0.578 2.167,0.89 3.311,1.123c1.184,0.241 2.424,0.511 3.638,0.441c2.235,-0.129 4.236,-1.693 5.802,-3.184c1.486,-1.414 2.895,-3.235 3.538,-5.208c0.264,-0.798 0.048,-1.805 -0.912,-1.94zM32.566,29.165c-0.166,0.51 -0.432,1.003 -0.694,1.47c-1.018,1.819 -2.474,3.386 -4.157,4.609c-0.895,0.65 -1.874,1.317 -2.981,1.518c-1.185,0.215 -2.425,-0.054 -3.588,-0.28c-2.207,-0.428 -4.148,-1.179 -5.588,-2.979c-2.807,-3.506 -2.61,-8.768 -1.464,-12.873c1.15,-4.122 3.806,-7.841 7.83,-9.544c1.813,-0.767 3.901,-1.115 5.844,-0.698c1.732,0.372 3.496,1.336 4.292,2.989c0.925,1.922 0.204,4.582 -1.083,6.187c-0.51,0.637 -1.648,1.512 -2.492,0.93c-0.889,-0.614 0.033,-2.081 0.3,-2.805c0.291,-0.789 0.556,-1.685 0.471,-2.535c-0.003,-0.025 -0.015,-0.043 -0.02,-0.066c-0.001,-0.023 0.006,-0.043 0.002,-0.067c-0.124,-0.756 -0.361,-1.528 -0.989,-2.015c-0.436,-0.339 -1.05,-0.552 -1.592,-0.642c-1.54,-0.253 -3.342,0.391 -4.703,1.061c-3.227,1.588 -3.697,5.384 -4.105,8.566c-0.282,2.202 -0.684,4.44 -0.264,6.652c0.351,1.851 1.366,3.557 2.893,4.673c3.219,2.352 7.414,0.802 9.712,-2.073c0.619,-0.775 1.094,-1.628 1.736,-2.387c0.118,-0.139 0.322,-0.458 0.56,-0.385c0.282,0.086 0.143,0.5 0.08,0.694z" fill="#fe705a"></path></g></g></svg>