<svg xmlns="http://www.w3.org/2000/svg" xmlns:xlink="http://www.w3.org/1999/xlink" viewBox="0,0,256,256" width="24px" height="24px" fill-rule="nonzero"><g fill="#fe705a" fill-rule="nonzero" stroke="none" stroke-width="1" stroke-linecap="butt" stroke-linejoin="miter" stroke-miterlimit="10" stroke-dasharray="" stroke-dashoffset="0" font-family="none" font-weight="none" font-size="none" text-anchor="none" style="mix-blend-mode: normal"><g transform="scale(10.66667,10.66667)"><path d="M5.811,1h13.189c0.552,0 1,0.448 1,1v6c0,0.552 -0.448,1 -1,1h-7l-6.72,-6.72c-0.472,-0.472 -0.138,-1.28 0.531,-1.28z" opacity="0.35"></path><path d="M5,9h7l6.72,6.72c0.472,0.472 0.138,1.28 -0.53,1.28h-13.19c-0.552,0 -1,-0.448 -1,-1v-6c0,-0.552 0.448,-1 1,-1z"></path><path d="M4,10v6.006c0,0.637 0.253,1.247 0.703,1.697l6.017,6.017c0.472,0.472 1.28,0.138 1.28,-0.53v-14.19h-7c-0.552,0 -1,0.448 -1,1z" opacity="0.35"></path></g></g></svg>